<svg width="126" height="29" viewBox="0 0 126 29" fill="none" xmlns="http://www.w3.org/2000/svg">
<path d="M3.74844 11.0686C3.74844 11.5168 3.73486 11.9446 3.7077 12.352C3.69412 12.7459 3.67375 13.0583 3.64658 13.2892H3.74844C4.03365 12.8274 4.42072 12.4403 4.90965 12.128C5.41215 11.8156 6.05048 11.6594 6.82461 11.6594C8.06051 11.6594 9.05195 12.1347 9.79892 13.0854C10.5595 14.0361 10.9397 15.4486 10.9397 17.3228C10.9397 18.5859 10.77 19.6384 10.4304 20.4805C10.0909 21.3225 9.60878 21.9608 8.98404 22.3954C8.3593 22.8165 7.6327 23.027 6.80424 23.027C6.01652 23.027 5.3782 22.8776 4.88927 22.5788C4.41393 22.2664 4.03365 21.8997 3.74844 21.4787H3.58547L3.1984 22.8232H1.54827V7.34054H3.74844V11.0686ZM6.2542 13.4114C5.64304 13.4114 5.15411 13.5472 4.78741 13.8188C4.42072 14.0905 4.15588 14.5047 3.99291 15.0615C3.82993 15.6184 3.74844 16.3246 3.74844 17.1802V17.3432C3.74844 18.6062 3.925 19.5773 4.27811 20.2564C4.64481 20.9219 5.32388 21.2546 6.31531 21.2546C7.08945 21.2546 7.67344 20.9151 8.0673 20.236C8.47474 19.5569 8.67846 18.5791 8.67846 17.3024C8.67846 16.0122 8.47474 15.0411 8.0673 14.3892C7.67344 13.7373 7.06907 13.4114 6.2542 13.4114ZM19.3118 11.639C19.4884 11.639 19.6853 11.6526 19.9026 11.6798C20.1199 11.6934 20.3033 11.7137 20.4527 11.7409L20.2286 13.7577C20.0792 13.717 19.9094 13.683 19.7193 13.6559C19.5291 13.6287 19.339 13.6151 19.1489 13.6151C18.7822 13.6151 18.429 13.6966 18.0895 13.8596C17.75 14.009 17.4444 14.2331 17.1728 14.5318C16.9011 14.8171 16.6838 15.1702 16.5209 15.5912C16.3579 16.0122 16.2764 16.4943 16.2764 17.0376V22.8232H14.0762V11.8427H15.8079L16.0931 13.7985H16.2153C16.419 13.4046 16.6703 13.0447 16.9691 12.7187C17.2814 12.3928 17.6345 12.1347 18.0284 11.9446C18.4223 11.7409 18.8501 11.639 19.3118 11.639ZM31.9485 11.8427V22.8232H30.2169L29.9113 21.3768H29.7891C29.5854 21.7571 29.3069 22.0695 28.9538 22.3139C28.6143 22.5584 28.2408 22.735 27.8334 22.8436C27.4259 22.9658 27.0049 23.027 26.5703 23.027C25.769 23.027 25.0899 22.8911 24.5331 22.6195C23.9899 22.3343 23.5688 21.8997 23.27 21.3157C22.9848 20.7181 22.8422 19.9576 22.8422 19.0341V11.8427H25.0628V18.7081C25.0628 19.5637 25.2258 20.202 25.5517 20.6231C25.8777 21.0441 26.387 21.2546 27.0796 21.2546C27.7587 21.2546 28.2883 21.1052 28.6686 20.8064C29.0625 20.5076 29.3409 20.073 29.5039 19.5026C29.6668 18.9186 29.7483 18.2192 29.7483 17.4043V11.8427H31.9485ZM41.0288 11.639C42.224 11.639 43.1407 11.9582 43.779 12.5965C44.4309 13.2348 44.7569 14.2602 44.7569 15.6727V22.8232H42.5567V15.9783C42.5567 15.1226 42.387 14.4843 42.0474 14.0633C41.7215 13.6287 41.2122 13.4114 40.5195 13.4114C39.5009 13.4114 38.8015 13.7441 38.4212 14.4096C38.0409 15.0751 37.8508 16.0326 37.8508 17.2821V22.8232H35.6506V11.8427H37.3822L37.6878 13.3095H37.8101C38.0409 12.9293 38.3194 12.6169 38.6453 12.3724C38.9713 12.128 39.338 11.9446 39.7454 11.8224C40.1528 11.7001 40.5806 11.639 41.0288 11.639ZM52.6552 23.027C51.6909 23.027 50.8421 22.83 50.1087 22.4362C49.3889 22.0423 48.8252 21.4312 48.4178 20.6027C48.024 19.7607 47.827 18.6945 47.827 17.4043C47.827 16.0462 48.0443 14.9461 48.4789 14.104C48.9135 13.262 49.5043 12.644 50.2513 12.2502C50.9983 11.8427 51.8539 11.639 52.8182 11.639C53.3886 11.639 53.9318 11.7069 54.4479 11.8427C54.9776 11.965 55.4122 12.1076 55.7517 12.2706L55.0794 14.0022C54.7399 13.8664 54.3732 13.7441 53.9794 13.6355C53.5855 13.5268 53.212 13.4725 52.8589 13.4725C52.2342 13.4725 51.7181 13.6219 51.3106 13.9207C50.9168 14.2059 50.618 14.6405 50.4143 15.2245C50.2105 15.7949 50.1087 16.5147 50.1087 17.3839C50.1087 18.2124 50.2105 18.9118 50.4143 19.4822C50.618 20.0527 50.9168 20.4873 51.3106 20.786C51.7181 21.0713 52.207 21.2139 52.7774 21.2139C53.3342 21.2139 53.83 21.1459 54.2646 21.0101C54.7127 20.8743 55.127 20.6978 55.5073 20.4805V22.3547C55.127 22.5856 54.7127 22.7553 54.2646 22.864C53.8164 22.9726 53.2799 23.027 52.6552 23.027ZM60.6984 11.4761C60.6984 11.8156 60.6849 12.1551 60.6577 12.4947C60.6441 12.8342 60.6238 13.1126 60.5966 13.3299H60.7188C60.9361 12.9496 61.201 12.6373 61.5133 12.3928C61.8393 12.1483 62.1992 11.965 62.593 11.8427C63.0005 11.7205 63.4147 11.6594 63.8357 11.6594C64.637 11.6594 65.3161 11.802 65.8729 12.0872C66.4433 12.3588 66.8712 12.7934 67.1564 13.391C67.4552 13.975 67.6045 14.7356 67.6045 15.6727V22.8232H65.384V15.9783C65.384 15.1226 65.221 14.4843 64.8951 14.0633C64.5691 13.6287 64.0598 13.4114 63.3672 13.4114C62.7017 13.4114 62.172 13.5608 61.7782 13.8596C61.3843 14.1584 61.1059 14.5998 60.9429 15.1838C60.7799 15.7542 60.6984 16.4604 60.6984 17.3024V22.8232H58.4983V7.34054H60.6984V11.4761ZM83.8174 19.7267C83.8174 20.4465 83.6545 21.0509 83.3285 21.5398C83.0026 22.0287 82.5272 22.4022 81.9025 22.6603C81.2777 22.9047 80.5104 23.027 79.6005 23.027C78.8806 23.027 78.2491 22.9658 77.7059 22.8436C77.1762 22.735 76.6873 22.572 76.2391 22.3547V20.4601C76.7144 20.691 77.2577 20.9015 77.8688 21.0916C78.48 21.2682 79.064 21.3565 79.6208 21.3565C80.3406 21.3565 80.8635 21.2274 81.1895 20.9694C81.5154 20.7113 81.6784 20.365 81.6784 19.9304C81.6784 19.686 81.6105 19.4687 81.4747 19.2785C81.3524 19.0748 81.1148 18.8711 80.7617 18.6674C80.4085 18.4501 79.8992 18.2056 79.2338 17.934C78.5819 17.6488 78.0318 17.3703 77.5836 17.0987C77.149 16.8135 76.8095 16.4808 76.565 16.1005C76.3341 15.7066 76.2187 15.2041 76.2187 14.593C76.2187 13.6423 76.5854 12.9157 77.3188 12.4132C78.0522 11.8971 79.0097 11.639 80.1912 11.639C80.8431 11.639 81.4475 11.7069 82.0043 11.8427C82.5612 11.965 83.1044 12.1551 83.6341 12.4132L82.9618 14.0633C82.6495 13.9139 82.3303 13.7917 82.0043 13.6966C81.692 13.5879 81.3796 13.4997 81.0672 13.4318C80.7549 13.3639 80.4425 13.3299 80.1301 13.3299C79.5461 13.3299 79.1047 13.4318 78.8059 13.6355C78.5072 13.8392 78.3578 14.1244 78.3578 14.4911C78.3578 14.7627 78.4257 14.9936 78.5615 15.1838C78.7109 15.3739 78.9621 15.564 79.3152 15.7542C79.6819 15.9443 80.1844 16.1684 80.8228 16.4264C81.4611 16.6845 82.0043 16.9493 82.4525 17.221C82.9007 17.4926 83.2402 17.8253 83.4711 18.2192C83.702 18.613 83.8174 19.1155 83.8174 19.7267ZM90.6825 21.275C90.9677 21.275 91.2461 21.2478 91.5177 21.1935C91.7894 21.1392 92.027 21.078 92.2308 21.0101V22.6399C91.9999 22.7485 91.6943 22.8368 91.314 22.9047C90.9473 22.9862 90.5603 23.027 90.1528 23.027C89.5824 23.027 89.0595 22.9251 88.5842 22.7214C88.1088 22.5177 87.7286 22.1645 87.4433 21.662C87.1581 21.1595 87.0155 20.4601 87.0155 19.5637V13.4929H85.6099V12.515L87.1174 11.7001L87.8712 9.37774H89.2361V11.8427H92.1493V13.4929H89.2361V19.523C89.2361 20.1206 89.3719 20.562 89.6435 20.8472C89.9151 21.1324 90.2615 21.275 90.6825 21.275ZM104.111 17.3228C104.111 18.2328 103.996 19.0408 103.765 19.7471C103.534 20.4533 103.201 21.0509 102.767 21.5398C102.346 22.0287 101.83 22.4022 101.219 22.6603C100.607 22.9047 99.9216 23.027 99.161 23.027C98.4684 23.027 97.8233 22.9047 97.2257 22.6603C96.6281 22.4022 96.112 22.0287 95.6774 21.5398C95.2428 21.0509 94.9033 20.4533 94.6588 19.7471C94.428 19.0408 94.3125 18.226 94.3125 17.3024C94.3125 16.0937 94.5094 15.0683 94.9033 14.2263C95.2972 13.3842 95.8608 12.7459 96.5942 12.3113C97.3412 11.8631 98.2239 11.639 99.2425 11.639C100.193 11.639 101.035 11.8631 101.769 12.3113C102.502 12.7459 103.072 13.3842 103.48 14.2263C103.901 15.0683 104.111 16.1005 104.111 17.3228ZM96.5942 17.3228C96.5942 18.1377 96.6825 18.8439 96.859 19.4415C97.0492 20.0255 97.3344 20.4737 97.7146 20.786C98.1085 21.0984 98.6042 21.2546 99.2018 21.2546C99.813 21.2546 100.309 21.0984 100.689 20.786C101.083 20.4737 101.368 20.0255 101.545 19.4415C101.735 18.8439 101.83 18.1377 101.83 17.3228C101.83 16.4808 101.735 15.7745 101.545 15.2041C101.354 14.6337 101.069 14.1991 100.689 13.9003C100.309 13.5879 99.8062 13.4318 99.1814 13.4318C98.2715 13.4318 97.6128 13.7713 97.2053 14.4504C96.7979 15.1294 96.5942 16.0869 96.5942 17.3228ZM112.467 11.639C112.644 11.639 112.841 11.6526 113.058 11.6798C113.276 11.6934 113.459 11.7137 113.608 11.7409L113.384 13.7577C113.235 13.717 113.065 13.683 112.875 13.6559C112.685 13.6287 112.495 13.6151 112.304 13.6151C111.938 13.6151 111.585 13.6966 111.245 13.8596C110.906 14.009 110.6 14.2331 110.328 14.5318C110.057 14.8171 109.839 15.1702 109.676 15.5912C109.514 16.0122 109.432 16.4943 109.432 17.0376V22.8232H107.232V11.8427H108.963L109.249 13.7985H109.371C109.575 13.4046 109.826 13.0447 110.125 12.7187C110.437 12.3928 110.79 12.1347 111.184 11.9446C111.578 11.7409 112.006 11.639 112.467 11.639ZM114.551 11.8427H116.915L119.013 18.0766C119.122 18.3889 119.217 18.6945 119.298 18.9933C119.393 19.2921 119.468 19.5909 119.522 19.8897C119.59 20.1749 119.644 20.4601 119.685 20.7453H119.746C119.814 20.3922 119.909 19.978 120.031 19.5026C120.154 19.0137 120.29 18.5315 120.439 18.0562L122.435 11.8427H124.819L120.419 24.3104C120.161 25.0166 119.848 25.621 119.481 26.1235C119.128 26.6396 118.694 27.0334 118.178 27.3051C117.675 27.5767 117.071 27.7125 116.365 27.7125C116.066 27.7125 115.794 27.6921 115.55 27.6514C115.319 27.6242 115.115 27.5903 114.938 27.5495V25.8383C115.074 25.8655 115.244 25.8926 115.448 25.9198C115.652 25.9469 115.862 25.9605 116.079 25.9605C116.473 25.9605 116.813 25.879 117.098 25.7161C117.383 25.5531 117.621 25.3222 117.811 25.0234C118.001 24.7382 118.157 24.3987 118.28 24.0048L118.687 22.8232L114.551 11.8427Z" fill="#101010"/>
<rect x="72.7559" y="3.73438" width="52.3851" height="2.91028" fill="#101010"/>
</svg>
