<svg width="161" height="161" viewBox="0 0 161 161" fill="none" xmlns="http://www.w3.org/2000/svg">
<g id="logo">
<g clip-path="url(#clip0_137_3581)">
<rect width="161" height="161" rx="40" fill="#09D17D"/>
<path id="Rectangle 6667408" d="M159.319 -4.2263C159.319 -4.2263 199.853 -11.5538 183.857 -2.27926C167.861 6.99524 140.344 104.958 136.111 93.8859C131.879 82.8138 124.194 90.8189 119.353 84.7562C102.518 63.674 159.319 -4.2263 159.319 -4.2263Z" fill="#E5E5E5"/>
<path id="Rectangle 6667405" d="M-7.40039 109.151H175.092V109.151C175.092 141.875 148.565 168.402 115.841 168.402H51.8505C19.1271 168.402 -7.40039 141.875 -7.40039 109.151V109.151Z" fill="#E5E5E5"/>
<path id="Ellipse 1310" d="M175.092 111.521C175.092 133.773 134.24 151.812 83.8459 151.812C33.452 151.812 -7.40039 133.773 -7.40039 111.521C-7.40039 89.2695 33.452 71.2308 83.8459 71.2308C98.9883 71.2308 113.269 72.8595 125.839 75.7418C134.051 77.6247 141.532 80.0425 148.046 82.8907C164.747 90.1928 175.092 100.324 175.092 111.521Z" fill="#E5E5E5"/>
<ellipse id="Ellipse 1309" cx="82.6595" cy="110.337" rx="75.8411" ry="29.6254" fill="#D9D9D9"/>
<path id="Ellipse 1300" d="M146.196 105.52C146.196 133.914 116.689 156.933 80.2899 156.933C43.891 156.933 14.3838 133.914 14.3838 105.52C14.3838 77.1247 43.891 29.1556 80.2899 29.1556C116.689 29.1556 146.196 77.1247 146.196 105.52Z" fill="white"/>
<circle id="Ellipse 1312" cx="62.5463" cy="79.8535" r="5.0697" fill="#111827"/>
<circle id="Ellipse 1313" cx="95.5004" cy="79.8535" r="5.0697" fill="#111827"/>
<path id="Intersect" fill-rule="evenodd" clip-rule="evenodd" d="M175.09 111.52C175.09 133.772 134.238 151.81 83.844 151.81C33.45 151.81 -7.40234 133.772 -7.40234 111.52C-7.40234 109.916 -7.19023 108.335 -6.77773 106.78H7.35889C7.00209 107.946 6.81852 109.132 6.81852 110.335C6.81852 126.697 40.7737 139.96 82.6596 139.96C124.546 139.96 158.501 126.697 158.501 110.335C158.501 109.132 158.317 107.946 157.96 106.78H174.466C174.878 108.335 175.09 109.916 175.09 111.52Z" fill="#E5E5E5"/>
<rect id="Rectangle 6667407" x="33.3105" y="144.345" width="94.3793" height="14.8046" fill="#E5E5E5"/>
</g>
</g>
<defs>
<clipPath id="clip0_137_3581">
<rect width="161" height="161" rx="40" fill="white"/>
</clipPath>
</defs>
</svg>
